<svg width="24" height="24" viewBox="0 0 24 24" fill="none" xmlns="http://www.w3.org/2000/svg">
<path d="M12.0006 18.4603C11.8026 18.456 11.6135 18.3774 11.4706 18.2403L5.77064 12.5303C5.64556 12.3938 5.57617 12.2154 5.57617 12.0303C5.57617 11.8451 5.64556 11.6667 5.77064 11.5303L14.1606 3.00027C14.3012 2.85958 14.4918 2.78045 14.6906 2.78027H20.4406C20.6378 2.78026 20.8271 2.8579 20.9675 2.9964C21.1078 3.13489 21.188 3.3231 21.1906 3.52027L21.2506 9.20027C21.2509 9.40215 21.1719 9.59607 21.0306 9.74027L12.5206 18.2503C12.381 18.3849 12.1946 18.4601 12.0006 18.4603ZM7.35064 12.0003L12.0006 16.6403L19.7606 8.89027L19.7006 4.27027L15.0006 4.25027L7.35064 12.0003Z" fill="#FF1493"/>
<path d="M14.7906 21.25C14.692 21.2505 14.5944 21.2313 14.5034 21.1935C14.4124 21.1557 14.3298 21.1002 14.2606 21.03L3.00058 9.74005C2.90919 9.59909 2.86777 9.43153 2.88296 9.26423C2.89814 9.09692 2.96906 8.93956 3.08434 8.81737C3.19962 8.69517 3.35258 8.61522 3.51872 8.59032C3.68486 8.56542 3.85454 8.59702 4.00058 8.68005L15.3206 20C15.461 20.1407 15.5399 20.3313 15.5399 20.53C15.5399 20.7288 15.461 20.9194 15.3206 21.06C15.2492 21.1252 15.1656 21.1756 15.0746 21.2082C14.9837 21.2408 14.8871 21.255 14.7906 21.25Z" fill="#FF1493"/>
<path d="M7.00035 21.1903C6.89576 21.2011 6.79007 21.1897 6.69015 21.157C6.59023 21.1243 6.49831 21.0709 6.42035 21.0003L3.00035 17.5503C2.92919 17.4777 2.87311 17.3917 2.83535 17.2973C2.79759 17.2029 2.7789 17.102 2.78035 17.0003C2.78035 16.5903 2.78035 16.5803 6.89035 12.5803C7.03357 12.4411 7.22623 12.3644 7.42596 12.3673C7.62569 12.3701 7.81611 12.4521 7.95535 12.5953C8.09459 12.7385 8.17123 12.9312 8.16842 13.1309C8.16561 13.3307 8.08357 13.5211 7.94035 13.6603C6.66035 14.9103 5.26035 16.2903 4.57035 17.0003L7.00035 19.3803L10.3104 16.0003C10.3793 15.9296 10.4617 15.8733 10.5527 15.8349C10.6438 15.7965 10.7416 15.7768 10.8404 15.7768C10.9391 15.7768 11.0369 15.7965 11.128 15.8349C11.219 15.8733 11.3014 15.9296 11.3704 16.0003C11.5108 16.141 11.5897 16.3316 11.5897 16.5303C11.5897 16.7291 11.5108 16.9197 11.3704 17.0603L7.48035 21.0003C7.34614 21.1156 7.17711 21.1825 7.00035 21.1903Z" fill="#FF1493"/>
<path d="M12.0003 12.7502C11.9018 12.7506 11.8041 12.7314 11.7131 12.6936C11.6221 12.6558 11.5396 12.6003 11.4703 12.5302C11.3299 12.3895 11.251 12.1989 11.251 12.0002C11.251 11.8014 11.3299 11.6108 11.4703 11.4702L15.4703 7.47015C15.539 7.39647 15.6218 7.33736 15.7138 7.29637C15.8058 7.25538 15.9051 7.23334 16.0058 7.23156C16.1065 7.22979 16.2065 7.24831 16.2999 7.28603C16.3933 7.32375 16.4781 7.3799 16.5494 7.45112C16.6206 7.52233 16.6767 7.60717 16.7144 7.70056C16.7522 7.79394 16.7707 7.89397 16.7689 7.99468C16.7671 8.09538 16.7451 8.19469 16.7041 8.28669C16.6631 8.37869 16.604 8.46149 16.5303 8.53015L12.5303 12.5302C12.4611 12.6003 12.3785 12.6558 12.2875 12.6936C12.1965 12.7314 12.0989 12.7506 12.0003 12.7502Z" fill="#FF1493"/>
</svg>
