<svg width="24" height="24" viewBox="0 0 24 24" fill="none" xmlns="http://www.w3.org/2000/svg">
<path d="M11.75 21.5C9.82164 21.5 7.93657 20.9282 6.33319 19.8568C4.72982 18.7855 3.48013 17.2627 2.74218 15.4812C2.00422 13.6996 1.81114 11.7392 2.18735 9.84787C2.56355 7.95656 3.49215 6.21928 4.85571 4.85571C6.21928 3.49215 7.95656 2.56355 9.84787 2.18735C11.7392 1.81114 13.6996 2.00422 15.4812 2.74218C17.2627 3.48013 18.7855 4.72982 19.8568 6.33319C20.9282 7.93657 21.5 9.82164 21.5 11.75C21.4974 14.3351 20.4693 16.8135 18.6414 18.6414C16.8135 20.4693 14.3351 21.4974 11.75 21.5ZM11.75 3.5C10.1183 3.5 8.52326 3.98386 7.16655 4.89038C5.80984 5.7969 4.75242 7.08538 4.128 8.59287C3.50358 10.1004 3.3402 11.7592 3.65853 13.3595C3.97685 14.9598 4.76259 16.4299 5.91637 17.5836C7.07016 18.7374 8.54017 19.5232 10.1405 19.8415C11.7409 20.1598 13.3997 19.9964 14.9071 19.372C16.4146 18.7476 17.7031 17.6902 18.6096 16.3335C19.5161 14.9768 20 13.3817 20 11.75C19.9974 9.56278 19.1273 7.4659 17.5807 5.9193C16.0341 4.37269 13.9372 3.50265 11.75 3.5Z" fill="#FF1493"/>
<path d="M5.33968 15.2905C4.5263 15.2922 3.71615 15.1879 2.92968 14.9805C2.83369 14.957 2.74327 14.9149 2.66362 14.8564C2.58397 14.7979 2.51666 14.7243 2.46555 14.6398C2.41444 14.5552 2.38055 14.4614 2.36581 14.3637C2.35107 14.266 2.35579 14.1663 2.37968 14.0705C2.43145 13.8798 2.5554 13.7169 2.72527 13.6161C2.89513 13.5153 3.09757 13.4846 3.28968 13.5305C3.96151 13.687 4.64994 13.7609 5.33968 13.7505C7.52691 13.7478 9.62379 12.8778 11.1704 11.3312C12.717 9.78456 13.587 7.68767 13.5897 5.50045C13.5931 4.72175 13.4819 3.94679 13.2597 3.20045C13.2341 3.10262 13.228 3.0007 13.2418 2.90051C13.2555 2.80032 13.2889 2.70383 13.34 2.61654C13.3911 2.52926 13.4588 2.45288 13.5394 2.39178C13.62 2.33069 13.7118 2.28606 13.8097 2.26045C14.0073 2.20873 14.2173 2.23763 14.3936 2.34077C14.5699 2.44392 14.698 2.61286 14.7497 2.81045C15.0114 3.69673 15.1427 4.61636 15.1397 5.54045C15.1384 6.82468 14.8836 8.09603 14.3901 9.28163C13.8965 10.4672 13.1738 11.5438 12.2634 12.4495C11.353 13.3553 10.2728 14.0725 9.08464 14.56C7.89654 15.0475 6.6239 15.2957 5.33968 15.2905Z" fill="#FF1493"/>
<path d="M12.0999 21.4897C11.9218 21.4896 11.7496 21.4261 11.614 21.3107C11.4785 21.1953 11.3884 21.0354 11.3599 20.8597C11.291 20.4634 11.2576 20.0618 11.2599 19.6597C11.2625 17.5812 12.0894 15.5886 13.5591 14.1189C15.0288 12.6491 17.0214 11.8223 19.0999 11.8197C19.6925 11.8141 20.2836 11.8813 20.8599 12.0197C20.9564 12.0408 21.0477 12.0811 21.1284 12.1381C21.209 12.1951 21.2775 12.2677 21.3297 12.3515C21.3819 12.4354 21.4168 12.5289 21.4323 12.6265C21.4477 12.724 21.4435 12.8237 21.4199 12.9197C21.3747 13.1132 21.2545 13.2809 21.0858 13.3859C20.917 13.4909 20.7135 13.5246 20.5199 13.4797C20.0546 13.3699 19.5779 13.3162 19.0999 13.3197C18.2665 13.3183 17.441 13.4814 16.6706 13.7994C15.9002 14.1174 15.2001 14.5842 14.6104 15.1731C14.0206 15.7619 13.5527 16.4613 13.2334 17.2311C12.9142 18.001 12.7499 18.8262 12.7499 19.6597C12.7513 19.9779 12.7781 20.2956 12.8299 20.6097C12.862 20.8056 12.8162 21.0064 12.7022 21.169C12.5882 21.3316 12.4151 21.4431 12.2199 21.4797L12.0999 21.4897Z" fill="#FF1493"/>
<path d="M18.11 18.8603C17.912 18.856 17.7228 18.7775 17.58 18.6403L4.85997 5.92029C4.71951 5.77966 4.64062 5.58904 4.64062 5.39029C4.64062 5.19154 4.71951 5.00091 4.85997 4.86029C4.92891 4.78953 5.01133 4.7333 5.10235 4.6949C5.19338 4.6565 5.29117 4.63672 5.38997 4.63672C5.48876 4.63672 5.58655 4.6565 5.67758 4.6949C5.7686 4.7333 5.85102 4.78953 5.91997 4.86029L18.64 17.5803C18.7804 17.7209 18.8593 17.9115 18.8593 18.1103C18.8593 18.309 18.7804 18.4997 18.64 18.6403C18.4971 18.7775 18.308 18.856 18.11 18.8603Z" fill="#FF1493"/>
</svg>
