<svg width="24" height="24" viewBox="0 0 24 24" fill="none" xmlns="http://www.w3.org/2000/svg">
<path d="M18.5298 19.2404H5.39982C5.24265 19.2418 5.08912 19.1932 4.96146 19.1015C4.83381 19.0098 4.73866 18.8798 4.68982 18.7304L1.49982 9.00043C1.45095 8.86051 1.44582 8.70904 1.48511 8.56614C1.52441 8.42324 1.60627 8.29568 1.71982 8.20043C1.83196 8.10204 1.97123 8.03984 2.11934 8.02199C2.26746 8.00415 2.41751 8.03149 2.54982 8.10043L8.36982 11.0004L11.3698 5.18043C11.439 5.0644 11.5371 4.96833 11.6545 4.9016C11.772 4.83488 11.9047 4.7998 12.0398 4.7998C12.1749 4.7998 12.3077 4.83488 12.4251 4.9016C12.5426 4.96833 12.6407 5.0644 12.7098 5.18043L15.7098 11.0104L21.5398 8.11043C21.6706 8.04233 21.819 8.01544 21.9653 8.03329C22.1117 8.05114 22.2492 8.11289 22.3598 8.21043C22.4556 8.31534 22.5196 8.44528 22.5443 8.58514C22.5691 8.72499 22.5537 8.86901 22.4998 9.00043L19.2398 18.7204C19.1927 18.8717 19.0983 19.0038 18.9705 19.0974C18.8427 19.1911 18.6882 19.2412 18.5298 19.2404ZM5.99982 17.7404H17.9998L20.5098 10.2504L15.6398 12.6704C15.5526 12.715 15.4574 12.7419 15.3597 12.7494C15.2621 12.757 15.1639 12.7451 15.0709 12.7144C14.9778 12.6837 14.8918 12.6348 14.8178 12.5706C14.7439 12.5064 14.6833 12.4282 14.6398 12.3404L11.9998 7.16043L9.36982 12.3404C9.3263 12.4282 9.26578 12.5064 9.19179 12.5706C9.11779 12.6348 9.03179 12.6837 8.93877 12.7144C8.84575 12.7451 8.74755 12.757 8.64989 12.7494C8.55222 12.7419 8.45703 12.715 8.36982 12.6704L3.47982 10.2204L5.99982 17.7404Z" fill="#FF1493"/>
<path d="M12.0001 14.7207C11.802 14.7181 11.6127 14.6383 11.4726 14.4982C11.3325 14.3581 11.2527 14.1688 11.2501 13.9707C11.2487 13.8727 11.2669 13.7754 11.3035 13.6844C11.3401 13.5935 11.3944 13.5107 11.4632 13.441C11.5321 13.3712 11.6141 13.3158 11.7046 13.278C11.795 13.2402 11.892 13.2207 11.9901 13.2207C12.189 13.2207 12.3797 13.2997 12.5204 13.4404C12.6611 13.581 12.7401 13.7718 12.7401 13.9707C12.7401 14.1696 12.6611 14.3604 12.5204 14.501C12.3797 14.6417 12.189 14.7207 11.9901 14.7207H12.0001Z" fill="#FF1493"/>
</svg>
