<svg width="24" height="24" viewBox="0 0 24 24" fill="none" xmlns="http://www.w3.org/2000/svg">
<path d="M10.3999 11.0001C10.3002 10.9995 10.2016 10.9791 10.1099 10.9401C10.0206 10.9021 9.93926 10.8479 9.8699 10.7801C9.79873 10.7135 9.74396 10.6314 9.7099 10.5401C9.65087 10.4032 9.63456 10.2517 9.66311 10.1053C9.69166 9.95902 9.76374 9.82473 9.8699 9.72007C9.93926 9.65228 10.0206 9.59802 10.1099 9.56007C10.2014 9.52045 10.3001 9.5 10.3999 9.5C10.4997 9.5 10.5984 9.52045 10.6899 9.56007C10.7792 9.59802 10.8605 9.65228 10.9299 9.72007C11.0706 9.86059 11.1497 10.0512 11.1499 10.2501C11.1502 10.3499 11.1298 10.4486 11.0899 10.5401C11.052 10.6293 10.9977 10.7107 10.9299 10.7801C10.7894 10.9208 10.5987 10.9999 10.3999 11.0001Z" fill="#FF1493"/>
<path d="M16.7903 11.0004C16.6917 11.0015 16.5938 10.9825 16.5027 10.9447C16.4117 10.9069 16.3292 10.851 16.2603 10.7804C16.1894 10.7115 16.1318 10.6301 16.0903 10.5404C16.0551 10.4475 16.0348 10.3497 16.0303 10.2504C16.0342 10.0504 16.1168 9.85993 16.2603 9.72043C16.3641 9.61629 16.4966 9.54546 16.6409 9.51696C16.7852 9.48846 16.9346 9.50359 17.0703 9.56043C17.1595 9.59838 17.2409 9.65264 17.3103 9.72043C17.451 9.86094 17.5301 10.0516 17.5303 10.2504C17.534 10.3495 17.517 10.4483 17.4803 10.5404C17.4387 10.6301 17.3811 10.7115 17.3103 10.7804C17.2409 10.8482 17.1595 10.9025 17.0703 10.9404C16.982 10.9792 16.8867 10.9997 16.7903 11.0004Z" fill="#FF1493"/>
<path d="M10.4004 17C10.289 17.0006 10.1789 16.9763 10.0781 16.9291C9.97723 16.8818 9.88818 16.8126 9.8174 16.7266C9.74662 16.6406 9.69588 16.5399 9.66887 16.4319C9.64186 16.3238 9.63926 16.2111 9.66125 16.1019C9.68323 15.9927 9.72927 15.8898 9.796 15.8007C9.86273 15.7115 9.94848 15.6383 10.047 15.5864C10.1456 15.5345 10.2545 15.5052 10.3657 15.5006C10.477 15.4961 10.5879 15.5163 10.6904 15.56C10.7797 15.5979 10.861 15.6522 10.9304 15.72C11.0709 15.8606 11.1497 16.0512 11.1497 16.25C11.1497 16.4487 11.0709 16.6394 10.9304 16.78C10.861 16.8478 10.7797 16.902 10.6904 16.94C10.5989 16.9799 10.5002 17.0003 10.4004 17Z" fill="#FF1493"/>
<path d="M16.7903 16.9998C16.5914 16.9996 16.4008 16.9205 16.2603 16.7798C16.1863 16.7136 16.1282 16.6315 16.0903 16.5398C16.0504 16.4483 16.03 16.3495 16.0303 16.2498C16.0349 16.1036 16.0816 15.9618 16.1647 15.8415C16.2479 15.7212 16.364 15.6274 16.4992 15.5715C16.6343 15.5155 16.7827 15.4998 16.9266 15.5261C17.0704 15.5524 17.2037 15.6196 17.3103 15.7198C17.451 15.8603 17.5301 16.0509 17.5303 16.2498C17.534 16.3489 17.517 16.4477 17.4803 16.5398C17.4424 16.6315 17.3843 16.7136 17.3103 16.7798C17.2437 16.8509 17.1616 16.9057 17.0703 16.9398C16.9824 16.9797 16.8868 17.0002 16.7903 16.9998Z" fill="#FF1493"/>
<path d="M18.6301 22.09H8.6301C7.63635 22.0874 6.68406 21.6915 5.98137 20.9888C5.27868 20.2861 4.88274 19.3338 4.8801 18.34V8.34004C4.8694 7.34623 5.25261 6.3886 5.94595 5.67653C6.63929 4.96445 7.58636 4.55584 8.5801 4.54004H18.5801C19.5739 4.54268 20.5261 4.93861 21.2288 5.6413C21.9315 6.34399 22.3275 7.29629 22.3301 8.29004V18.34C22.3276 19.3252 21.9386 20.2701 21.2466 20.9713C20.5547 21.6726 19.6152 22.0743 18.6301 22.09ZM8.5801 6.00004C8.28123 5.99999 7.98535 6.05949 7.70972 6.17505C7.4341 6.29062 7.18426 6.45994 6.9748 6.67313C6.76534 6.88631 6.60045 7.1391 6.48975 7.41671C6.37906 7.69433 6.32479 7.99122 6.3301 8.29004V18.34C6.3301 18.9368 6.56715 19.5091 6.98911 19.931C7.41107 20.353 7.98336 20.59 8.5801 20.59H18.5801C19.1768 20.59 19.7491 20.353 20.1711 19.931C20.593 19.5091 20.8301 18.9368 20.8301 18.34V8.34004C20.8421 8.04124 20.7945 7.74305 20.6899 7.46288C20.5854 7.18271 20.426 6.9262 20.2212 6.70833C20.0164 6.49046 19.7702 6.31561 19.497 6.19399C19.2238 6.07238 18.9291 6.00644 18.6301 6.00004H8.5801Z" fill="#FF1493"/>
<path d="M5.61024 19.4502H5.37024C4.37649 19.4475 3.42419 19.0516 2.7215 18.3489C2.01881 17.6462 1.62288 16.6939 1.62024 15.7002V5.70019C1.61628 5.20474 1.71029 4.71339 1.89685 4.25439C2.08341 3.79539 2.35885 3.37779 2.70733 3.02559C3.05581 2.67339 3.47047 2.39354 3.92746 2.20212C4.38445 2.0107 4.87477 1.91149 5.37024 1.91019H15.3702C16.2876 1.90653 17.1741 2.24106 17.8604 2.84984C18.5466 3.45861 18.9845 4.29894 19.0902 5.21019C19.1084 5.40552 19.0492 5.60018 18.9255 5.75243C18.8018 5.90468 18.6234 6.0024 18.4285 6.02464C18.2336 6.04688 18.0377 5.99187 17.8829 5.87139C17.728 5.75092 17.6266 5.57458 17.6002 5.38019C17.541 4.83034 17.2804 4.32185 16.8687 3.95261C16.457 3.58336 15.9233 3.37947 15.3702 3.38019H5.37024C5.07222 3.38016 4.77717 3.43934 4.50221 3.55428C4.22726 3.66923 3.97787 3.83765 3.76855 4.04977C3.55922 4.26189 3.39411 4.51348 3.28282 4.78993C3.17153 5.06639 3.11626 5.3622 3.12024 5.66019V15.6602C3.10811 15.9631 3.15734 16.2654 3.26497 16.5489C3.3726 16.8323 3.53641 17.0911 3.74656 17.3097C3.95671 17.5282 4.20887 17.7021 4.48789 17.8207C4.76691 17.9394 5.06703 18.0004 5.37024 18.0002H5.61024C5.80915 18.0002 5.99992 18.0792 6.14057 18.2199C6.28122 18.3605 6.36024 18.5513 6.36024 18.7502C6.36024 18.9491 6.28122 19.1399 6.14057 19.2805C5.99992 19.4212 5.80915 19.5002 5.61024 19.5002V19.4502Z" fill="#FF1493"/>
</svg>
