<svg width="24" height="24" viewBox="0 0 24 24" fill="none" xmlns="http://www.w3.org/2000/svg">
<path d="M16.4104 18.1402C16.2832 18.1384 16.1585 18.1056 16.0469 18.0446C15.9354 17.9836 15.8404 17.8962 15.7704 17.7902C15.6768 17.6249 15.6485 17.4306 15.6911 17.2455C15.7337 17.0604 15.844 16.898 16.0004 16.7902C17.3425 15.9262 18.3689 14.6508 18.9259 13.1549C19.4828 11.659 19.5405 10.023 19.0902 8.49162C18.6399 6.96023 17.7059 5.6158 16.4279 4.65946C15.1499 3.70312 13.5966 3.18629 12.0004 3.18629C10.4041 3.18629 8.85082 3.70312 7.5728 4.65946C6.29478 5.6158 5.36076 6.96023 4.91048 8.49162C4.4602 10.023 4.51786 11.659 5.07484 13.1549C5.63182 14.6508 6.65817 15.9262 8.00035 16.7902C8.11314 16.9141 8.18117 17.0722 8.19359 17.2393C8.20602 17.4064 8.16212 17.5729 8.0689 17.7122C7.97568 17.8514 7.83852 17.9554 7.67928 18.0076C7.52005 18.0598 7.34792 18.0572 7.19035 18.0002C5.57532 16.9611 4.34016 15.427 3.66972 13.6274C2.99927 11.8279 2.92958 9.85956 3.47108 8.01707C4.01258 6.17459 5.13615 4.55699 6.67366 3.40632C8.21116 2.25565 10.0799 1.63379 12.0004 1.63379C13.9208 1.63379 15.7895 2.25565 17.327 3.40632C18.8646 4.55699 19.9881 6.17459 20.5296 8.01707C21.0711 9.85956 21.0014 11.8279 20.331 13.6274C19.6605 15.427 18.4254 16.9611 16.8104 18.0002C16.6933 18.0843 16.5544 18.1329 16.4104 18.1402Z" fill="#FF1493"/>
<path d="M16.4108 22.3706H7.59082C7.39191 22.3706 7.20114 22.2916 7.06049 22.151C6.91984 22.0103 6.84082 21.8195 6.84082 21.6206V17.3906C6.84082 17.1917 6.91984 17.0009 7.06049 16.8603C7.20114 16.7196 7.39191 16.6406 7.59082 16.6406C7.78973 16.6406 7.9805 16.7196 8.12115 16.8603C8.2618 17.0009 8.34082 17.1917 8.34082 17.3906V20.8706H15.6608V17.3906C15.6608 17.1917 15.7398 17.0009 15.8805 16.8603C16.0211 16.7196 16.2119 16.6406 16.4108 16.6406C16.6097 16.6406 16.8005 16.7196 16.9412 16.8603C17.0818 17.0009 17.1608 17.1917 17.1608 17.3906V21.6206C17.1608 21.8195 17.0818 22.0103 16.9412 22.151C16.8005 22.2916 16.6097 22.3706 16.4108 22.3706Z" fill="#FF1493"/>
<path d="M9.16016 14.5502C8.96124 14.5502 8.77048 14.4712 8.62983 14.3305C8.48917 14.1899 8.41016 13.9991 8.41016 13.8002V10.2002C8.41016 10.0013 8.48917 9.81052 8.62983 9.66987C8.77048 9.52921 8.96124 9.4502 9.16016 9.4502C9.35907 9.4502 9.54983 9.52921 9.69049 9.66987C9.83114 9.81052 9.91016 10.0013 9.91016 10.2002V13.8002C9.90757 13.9983 9.82772 14.1876 9.68762 14.3277C9.54753 14.4678 9.35826 14.5476 9.16016 14.5502Z" fill="#FF1493"/>
<path d="M14.5605 14.5502C14.3624 14.5476 14.1732 14.4678 14.0331 14.3277C13.893 14.1876 13.8131 13.9983 13.8105 13.8002V10.2002C13.8105 10.0013 13.8896 9.81052 14.0302 9.66987C14.1709 9.52921 14.3616 9.4502 14.5605 9.4502C14.7595 9.4502 14.9502 9.52921 15.0909 9.66987C15.2315 9.81052 15.3105 10.0013 15.3105 10.2002V13.8002C15.3105 13.9991 15.2315 14.1899 15.0909 14.3305C14.9502 14.4712 14.7595 14.5502 14.5605 14.5502Z" fill="#FF1493"/>
<path d="M10.5801 22.3898C10.382 22.3872 10.1927 22.3073 10.0526 22.1672C9.91252 22.0271 9.83267 21.8379 9.83008 21.6398V19.5098C9.83008 19.3109 9.9091 19.1201 10.0497 18.9794C10.1904 18.8388 10.3812 18.7598 10.5801 18.7598C10.779 18.7598 10.9698 18.8388 11.1104 18.9794C11.2511 19.1201 11.3301 19.3109 11.3301 19.5098V21.6398C11.3301 21.8387 11.2511 22.0294 11.1104 22.1701C10.9698 22.3107 10.779 22.3898 10.5801 22.3898Z" fill="#FF1493"/>
<path d="M13.4199 22.3898C13.221 22.3898 13.0302 22.3107 12.8896 22.1701C12.7489 22.0294 12.6699 21.8387 12.6699 21.6398V19.5098C12.6699 19.3109 12.7489 19.1201 12.8896 18.9794C13.0302 18.8388 13.221 18.7598 13.4199 18.7598C13.6188 18.7598 13.8096 18.8388 13.9503 18.9794C14.0909 19.1201 14.1699 19.3109 14.1699 19.5098V21.6398C14.1673 21.8379 14.0875 22.0271 13.9474 22.1672C13.8073 22.3073 13.618 22.3872 13.4199 22.3898Z" fill="#FF1493"/>
</svg>
