<svg width="36" height="36" viewBox="0 0 36 36" fill="none" xmlns="http://www.w3.org/2000/svg">
<path d="M30.5552 13.9346H5.44522C4.51307 13.875 3.63862 13.4626 2.99958 12.7814C2.36055 12.1002 2.00488 11.2012 2.00488 10.2671C2.00488 9.33306 2.36055 8.43406 2.99958 7.75283C3.63862 7.0716 4.51307 6.65925 5.44522 6.59961H30.5552C31.4874 6.65925 32.3618 7.0716 33.0008 7.75283C33.6399 8.43406 33.9955 9.33306 33.9955 10.2671C33.9955 11.2012 33.6399 12.1002 33.0008 12.7814C32.3618 13.4626 31.4874 13.875 30.5552 13.9346ZM5.44522 8.84961C5.09442 8.88574 4.76948 9.05067 4.53323 9.3125C4.29699 9.57433 4.16622 9.91445 4.16622 10.2671C4.16622 10.6198 4.29699 10.9599 4.53323 11.2217C4.76948 11.4835 5.09442 11.6485 5.44522 11.6846H30.5552C30.906 11.6485 31.2309 11.4835 31.4672 11.2217C31.7034 10.9599 31.8342 10.6198 31.8342 10.2671C31.8342 9.91445 31.7034 9.57433 31.4672 9.3125C31.2309 9.05067 30.906 8.88574 30.5552 8.84961H5.44522Z" fill="#FF1493"/>
<path d="M28.935 29.7746H7.065C6.77715 29.7592 6.50619 29.6339 6.30802 29.4246C6.10985 29.2152 5.99959 28.9378 6 28.6496V12.8096C6 12.5112 6.11853 12.2251 6.32951 12.0141C6.54048 11.8031 6.82663 11.6846 7.125 11.6846H28.935C29.2334 11.6846 29.5195 11.8031 29.7305 12.0141C29.9415 12.2251 30.06 12.5112 30.06 12.8096V28.6496C30.06 28.9479 29.9415 29.2341 29.7305 29.4451C29.5195 29.656 29.2334 29.7746 28.935 29.7746ZM8.19 27.5246H27.81V13.9346H8.19V27.5246Z" fill="#FF1493"/>
<path d="M18 26.0092C17.7016 26.0092 17.4155 25.8907 17.2045 25.6797C16.9935 25.4687 16.875 25.1826 16.875 24.8842V16.5742C16.875 16.2759 16.9935 15.9897 17.2045 15.7787C17.4155 15.5677 17.7016 15.4492 18 15.4492C18.2984 15.4492 18.5845 15.5677 18.7955 15.7787C19.0065 15.9897 19.125 16.2759 19.125 16.5742V24.8842C19.125 25.1826 19.0065 25.4687 18.7955 25.6797C18.5845 25.8907 18.2984 26.0092 18 26.0092Z" fill="#FF1493"/>
<path d="M22.1557 21.8545H13.8457C13.5473 21.8545 13.2612 21.736 13.0502 21.525C12.8392 21.314 12.7207 21.0279 12.7207 20.7295C12.7207 20.4311 12.8392 20.145 13.0502 19.934C13.2612 19.723 13.5473 19.6045 13.8457 19.6045H22.1557C22.4541 19.6045 22.7402 19.723 22.9512 19.934C23.1622 20.145 23.2807 20.4311 23.2807 20.7295C23.2807 21.0279 23.1622 21.314 22.9512 21.525C22.7402 21.736 22.4541 21.8545 22.1557 21.8545Z" fill="#FF1493"/>
</svg>
