<svg width="24" height="24" viewBox="0 0 24 24" fill="none" xmlns="http://www.w3.org/2000/svg">
<path d="M11.0996 15.75C10.9015 15.7474 10.7122 15.6676 10.5721 15.5275C10.432 15.3874 10.3522 15.1981 10.3496 15V9.5C10.358 8.51394 10.0019 7.55953 9.34961 6.82C9.06378 6.48906 8.71095 6.22255 8.31447 6.0381C7.91798 5.85365 7.48686 5.75545 7.04961 5.75C6.11646 5.81426 5.24638 6.2442 4.62845 6.94638C4.01053 7.64857 3.6947 8.56625 3.74961 9.5V15C3.74961 15.1989 3.67059 15.3897 3.52994 15.5303C3.38929 15.671 3.19852 15.75 2.99961 15.75C2.80069 15.75 2.60993 15.671 2.46928 15.5303C2.32862 15.3897 2.24961 15.1989 2.24961 15V9.5C2.21603 8.83917 2.31395 8.17825 2.53769 7.55555C2.76143 6.93285 3.10654 6.36074 3.55302 5.87241C3.9995 5.38407 4.53847 4.98921 5.13868 4.71071C5.7389 4.43221 6.38842 4.27561 7.04961 4.25C7.69824 4.25518 8.3384 4.39778 8.9279 4.6684C9.5174 4.93902 10.0428 5.33151 10.4696 5.82C11.368 6.83434 11.8595 8.14507 11.8496 9.5V15C11.847 15.1981 11.7672 15.3874 11.6271 15.5275C11.487 15.6676 11.2977 15.7474 11.0996 15.75Z" fill="#FF1493"/>
<path d="M21 15.75H3C2.80109 15.75 2.61032 15.671 2.46967 15.5303C2.32902 15.3897 2.25 15.1989 2.25 15C2.25 14.8011 2.32902 14.6103 2.46967 14.4697C2.61032 14.329 2.80109 14.25 3 14.25H20.25V9.5C20.2584 8.51394 19.9023 7.55953 19.25 6.82C18.9698 6.49525 18.625 6.2324 18.2376 6.04818C17.8502 5.86396 17.4288 5.76241 17 5.75C16.8011 5.75 16.6103 5.67098 16.4697 5.53033C16.329 5.38968 16.25 5.19891 16.25 5C16.25 4.80109 16.329 4.61032 16.4697 4.46967C16.6103 4.32902 16.8011 4.25 17 4.25C17.6488 4.25391 18.2894 4.39594 18.8791 4.66664C19.4688 4.93735 19.9941 5.33052 20.42 5.82C21.3003 6.84168 21.7737 8.15161 21.75 9.5V15C21.7474 15.1981 21.6676 15.3874 21.5275 15.5275C21.3874 15.6676 21.1981 15.7474 21 15.75Z" fill="#FF1493"/>
<path d="M12 22.75C11.8019 22.7474 11.6126 22.6676 11.4725 22.5275C11.3324 22.3874 11.2526 22.1981 11.25 22V15.75H3C2.80109 15.75 2.61032 15.671 2.46967 15.5303C2.32902 15.3897 2.25 15.1989 2.25 15C2.25 14.8011 2.32902 14.6103 2.46967 14.4697C2.61032 14.329 2.80109 14.25 3 14.25H12C12.1981 14.2526 12.3874 14.3324 12.5275 14.4725C12.6676 14.6126 12.7474 14.8019 12.75 15V22C12.7474 22.1981 12.6676 22.3874 12.5275 22.5275C12.3874 22.6676 12.1981 22.7474 12 22.75Z" fill="#FF1493"/>
<path d="M17.4 5.75H7.5C7.30109 5.75 7.11032 5.67098 6.96967 5.53033C6.82902 5.38968 6.75 5.19891 6.75 5C6.75 4.80109 6.82902 4.61032 6.96967 4.46967C7.11032 4.32902 7.30109 4.25 7.5 4.25H17.4C17.5989 4.25 17.7897 4.32902 17.9303 4.46967C18.071 4.61032 18.15 4.80109 18.15 5C18.15 5.19891 18.071 5.38968 17.9303 5.53033C17.7897 5.67098 17.5989 5.75 17.4 5.75Z" fill="#FF1493"/>
<path d="M16 9.75C15.8019 9.74741 15.6126 9.66756 15.4725 9.52747C15.3324 9.38737 15.2526 9.19811 15.25 9V2C15.2526 1.80189 15.3324 1.61263 15.4725 1.47253C15.6126 1.33244 15.8019 1.25259 16 1.25H21C21.1989 1.25 21.3897 1.32902 21.5303 1.46967C21.671 1.61032 21.75 1.80109 21.75 2C21.75 2.19891 21.671 2.38968 21.5303 2.53033C21.3897 2.67098 21.1989 2.75 21 2.75H16.75V9C16.7474 9.19811 16.6676 9.38737 16.5275 9.52747C16.3874 9.66756 16.1981 9.74741 16 9.75Z" fill="#FF1493"/>
</svg>
