<svg width="36" height="36" viewBox="0 0 36 36" fill="none" xmlns="http://www.w3.org/2000/svg">
<path d="M18.0003 32.5049C17.818 32.5099 17.6374 32.4686 17.4753 32.3849C17.0103 32.1299 5.89535 26.2349 3.57035 18.2849C2.23535 13.7849 2.68535 9.38993 4.77035 6.59993C5.5324 5.59303 6.52625 4.78496 7.66746 4.24439C8.80866 3.70382 10.0635 3.44672 11.3253 3.49493C12.6799 3.42859 14.0255 3.74694 15.2067 4.4132C16.3879 5.07945 17.3565 6.06639 18.0003 7.25993C18.6442 6.06639 19.6128 5.07945 20.794 4.4132C21.9752 3.74694 23.3208 3.42859 24.6753 3.49493C25.9372 3.44672 27.192 3.70382 28.3332 4.24439C29.4744 4.78496 30.4683 5.59303 31.2303 6.59993C33.3153 9.38993 33.7653 13.7549 32.4303 18.2849C30.0903 26.2349 18.9303 32.1299 18.5253 32.3849C18.3633 32.4686 18.1827 32.5099 18.0003 32.5049ZM11.3253 5.74493C10.413 5.69628 9.50256 5.87182 8.67367 6.25619C7.84478 6.64056 7.12264 7.22208 6.57035 7.94993C4.90535 10.1699 4.59035 13.7999 5.73035 17.6549C7.53034 23.7899 15.8253 28.8599 18.0003 30.1049C20.1753 28.8599 28.5003 23.7749 30.2703 17.6549C31.4103 13.7999 31.0803 10.1549 29.4303 7.94993C28.878 7.22208 28.1559 6.64056 27.327 6.25619C26.4981 5.87182 25.5877 5.69628 24.6753 5.74493C19.5453 5.74493 19.1553 10.7099 19.1253 11.2649C19.1101 11.5542 18.9854 11.8268 18.7764 12.0274C18.5675 12.228 18.29 12.3415 18.0003 12.3449C17.7107 12.3415 17.4332 12.228 17.2243 12.0274C17.0153 11.8268 16.8906 11.5542 16.8753 11.2649C16.8453 10.7099 16.5003 5.74493 11.3253 5.74493Z" fill="#FF1493"/>
<path d="M16.0802 25.1402C15.7942 25.1371 15.5123 25.0725 15.2535 24.9509C14.9947 24.8292 14.7651 24.6534 14.5802 24.4352L9.8402 18.8402H4.5752C4.27683 18.8402 3.99068 18.7217 3.7797 18.5107C3.56872 18.2998 3.4502 18.0136 3.4502 17.7152C3.4502 17.4169 3.56872 17.1307 3.7797 16.9197C3.99068 16.7088 4.27683 16.5902 4.5752 16.5902H10.3652C10.5287 16.5906 10.6902 16.6271 10.838 16.6971C10.9858 16.7671 11.1163 16.8689 11.2202 16.9952L16.0502 22.7102L21.0002 14.5352C21.1529 14.2582 21.3679 14.0205 21.6282 13.8409C21.8885 13.6613 22.187 13.5447 22.5002 13.5002C22.8124 13.4569 23.1304 13.4888 23.4279 13.5931C23.7253 13.6975 23.9935 13.8713 24.2102 14.1002L26.2802 16.2152H31.5002C31.7986 16.2152 32.0847 16.3338 32.2957 16.5447C32.5067 16.7557 32.6252 17.0419 32.6252 17.3402C32.6252 17.6386 32.5067 17.9248 32.2957 18.1357C32.0847 18.3467 31.7986 18.4652 31.5002 18.4652H25.7852C25.4824 18.4657 25.1915 18.3472 24.9752 18.1352L22.7402 15.8402L17.7902 24.1352C17.6299 24.399 17.4114 24.6226 17.1514 24.789C16.8914 24.9554 16.5968 25.0601 16.2902 25.0952L16.0802 25.1402Z" fill="#FF1493"/>
</svg>
