<svg width="36" height="36" viewBox="0 0 36 36" fill="none" xmlns="http://www.w3.org/2000/svg">
<path d="M18 20.625C16.2941 20.625 14.6266 20.1192 13.2082 19.1714C11.7898 18.2237 10.6843 16.8767 10.0315 15.3006C9.37874 13.7246 9.20793 11.9904 9.54073 10.3173C9.87353 8.64426 10.695 7.10744 11.9012 5.90121C13.1074 4.69498 14.6443 3.87353 16.3174 3.54073C17.9904 3.20793 19.7246 3.37874 21.3006 4.03154C22.8767 4.68435 24.2237 5.78984 25.1714 7.20821C26.1192 8.62658 26.625 10.2941 26.625 12C26.621 14.2863 25.7111 16.4778 24.0944 18.0944C22.4778 19.7111 20.2863 20.621 18 20.625ZM18 5.625C16.7391 5.625 15.5066 5.99889 14.4582 6.69939C13.4099 7.39988 12.5928 8.39552 12.1103 9.5604C11.6278 10.7253 11.5015 12.0071 11.7475 13.2437C11.9935 14.4803 12.6006 15.6163 13.4922 16.5078C14.3838 17.3994 15.5197 18.0065 16.7563 18.2525C17.9929 18.4985 19.2747 18.3722 20.4396 17.8897C21.6045 17.4072 22.6001 16.5901 23.3006 15.5418C24.0011 14.4934 24.375 13.2609 24.375 12C24.371 10.3105 23.6981 8.69126 22.5034 7.49657C21.3087 6.30189 19.6895 5.62897 18 5.625Z" fill="#FF1493"/>
<path d="M31.5 32.625C31.2028 32.6211 30.9189 32.5013 30.7088 32.2912C30.4987 32.0811 30.3789 31.7972 30.375 31.5C30.371 28.617 29.224 25.8532 27.1854 23.8146C25.1468 21.776 22.383 20.629 19.5 20.625H16.5C13.617 20.629 10.8532 21.776 8.8146 23.8146C6.776 25.8532 5.62897 28.617 5.625 31.5C5.625 31.7984 5.50647 32.0845 5.2955 32.2955C5.08452 32.5065 4.79837 32.625 4.5 32.625C4.20163 32.625 3.91548 32.5065 3.7045 32.2955C3.49353 32.0845 3.375 31.7984 3.375 31.5C3.37897 28.0203 4.76305 24.6842 7.22361 22.2236C9.68416 19.7631 13.0203 18.379 16.5 18.375H19.5C22.9797 18.379 26.3158 19.7631 28.7764 22.2236C31.2369 24.6842 32.621 28.0203 32.625 31.5C32.6211 31.7972 32.5013 32.0811 32.2912 32.2912C32.0811 32.5013 31.7972 32.6211 31.5 32.625Z" fill="#FF1493"/>
</svg>
